# Blender 4.0.2
# www.blender.org
mtllib base_cell.mtl
o base_cell
v 0.000000 0.000000 0.000000
v 0.000000 0.063000 -0.000000
v -0.605414 0.063000 -0.222689
v -0.541427 0.063000 -0.206419
v -0.476441 0.063000 -0.203596
v -0.385918 0.063000 -0.224334
v -0.306937 0.063000 -0.273264
v -0.260934 0.063000 -0.323255
v -0.222261 0.063000 -0.391112
v -0.202106 0.063000 -0.494822
v -0.777711 0.063000 -0.398298
v -0.738946 0.063000 -0.326804
v -0.686245 0.063000 -0.268931
v -0.795185 0.063000 -0.502467
v -0.520849 0.063000 -0.793694
v -0.476641 0.365400 -0.793673
v -0.455863 0.063000 -0.790871
v -0.569547 0.365400 -0.786571
v -0.611368 0.063000 -0.772959
v -0.640490 0.365400 -0.757682
v -0.690353 0.063000 -0.724026
v -0.684816 0.365400 -0.728007
v -0.736351 0.063000 -0.674042
v -0.722583 0.365400 -0.691189
v -0.775026 0.063000 -0.606185
v -0.753441 0.365400 -0.648130
v -0.776015 0.365400 -0.600071
v -0.792215 0.365400 -0.535576
v -0.789745 0.365400 -0.441975
v -0.757480 0.365400 -0.355281
v -0.700345 0.365400 -0.281248
v -0.611251 0.365400 -0.224299
v -0.520649 0.365400 -0.203617
v -0.427751 0.365400 -0.210717
v -0.356812 0.365400 -0.239601
v -0.312473 0.365400 -0.269284
v -0.274712 0.365400 -0.306096
v -0.243849 0.365400 -0.349160
v -0.221273 0.365400 -0.397227
v -0.205075 0.365400 -0.461715
v -0.207546 0.365400 -0.555319
v -0.219576 0.063000 -0.598984
v -0.239814 0.365400 -0.642016
v -0.258338 0.063000 -0.670476
v -0.311045 0.063000 -0.728361
v -0.296943 0.365400 -0.716041
v -0.391880 0.063000 -0.774603
v -0.386044 0.365400 -0.772994
v -0.534110 0.063000 -0.740974
v -0.517058 0.063000 -0.253978
v -0.480397 0.365400 -0.253996
v -0.480227 0.063000 -0.743312
v -0.463166 0.063000 -0.256319
v -0.557435 0.365400 -0.259883
v -0.587182 0.063000 -0.727479
v -0.592121 0.063000 -0.271174
v -0.654207 0.063000 -0.689138
v -0.616267 0.365400 -0.283839
v -0.657618 0.063000 -0.311750
v -0.670506 0.365400 -0.322757
v -0.697917 0.063000 -0.641135
v -0.695762 0.063000 -0.353202
v -0.730060 0.063000 -0.581854
v -0.727834 0.063000 -0.409475
v -0.721379 0.365400 -0.394417
v -0.744548 0.063000 -0.495475
v -0.742086 0.365400 -0.468022
v -0.740037 0.365400 -0.545642
v -0.708186 0.365400 -0.627383
v -0.657857 0.365400 -0.685348
v -0.592023 0.365400 -0.726145
v -0.516890 0.365400 -0.743294
v -0.439855 0.365400 -0.737406
v -0.410111 0.063000 -0.269809
v -0.405165 0.063000 -0.726115
v -0.343079 0.063000 -0.308156
v -0.381033 0.365400 -0.713457
v -0.339670 0.063000 -0.685538
v -0.326786 0.365400 -0.674536
v -0.299374 0.063000 -0.356154
v -0.301527 0.063000 -0.644087
v -0.267230 0.063000 -0.415437
v -0.269456 0.063000 -0.587817
v -0.275913 0.365400 -0.602877
v -0.252743 0.063000 -0.501816
v -0.255205 0.365400 -0.529273
v -0.257253 0.365400 -0.451648
v -0.289101 0.365400 -0.369911
v -0.339430 0.365400 -0.311944
v -0.405270 0.365400 -0.271145
v -1.000000 0.000000 0.000000
v -1.000000 0.063000 -0.000000
v -1.000000 -0.000000 -1.000000
v -1.000000 0.063000 -1.000000
v -0.468019 0.063000 -1.000000
v 0.000000 -0.000000 -1.000000
v 0.000000 0.063000 -1.000000
vn -0.0000 1.0000 -0.0000
vn -1.0000 -0.0000 -0.0000
vn 0.0434 -0.0063 -0.9990
vn -0.0762 0.0112 -0.9970
vn -0.2233 -0.0130 -0.9747
vn -0.3771 0.0105 -0.9261
vn -0.5266 -0.0078 -0.8501
vn -0.5563 -0.0008 -0.8310
vn -0.7358 -0.0049 -0.6771
vn -0.6980 0.0034 -0.7160
vn -0.8688 -0.0067 -0.4952
vn -0.8128 0.0040 -0.5825
vn -0.9051 0.0056 -0.4251
vn -0.9816 -0.0112 -0.1908
vn -0.9699 0.0018 -0.2436
vn -0.9996 0.0127 0.0264
vn -0.9861 -0.0154 0.1654
vn -0.9371 0.0131 0.3488
vn -0.8791 -0.0090 0.4766
vn -0.7394 -0.0071 0.6733
vn -0.7916 0.0090 0.6109
vn -0.4966 -0.0050 0.8680
vn -0.5386 0.0092 0.8425
vn -0.2464 0.0004 0.9692
vn -0.2225 0.0063 0.9749
vn -0.0434 -0.0063 0.9990
vn 0.0762 0.0112 0.9970
vn 0.2233 -0.0130 0.9747
vn 0.3771 0.0105 0.9261
vn 0.5266 -0.0078 0.8501
vn 0.5563 -0.0008 0.8310
vn 0.7358 -0.0049 0.6771
vn 0.6980 0.0034 0.7160
vn 0.8688 -0.0067 0.4951
vn 0.8128 0.0040 0.5825
vn 0.9051 0.0056 0.4251
vn 0.9816 -0.0112 0.1908
vn 0.9699 0.0018 0.2436
vn 0.9996 0.0127 -0.0264
vn 0.9861 -0.0153 -0.1654
vn 0.9371 0.0131 -0.3488
vn 0.8791 -0.0090 -0.4766
vn 0.7394 -0.0071 -0.6733
vn 0.7916 0.0090 -0.6109
vn 0.4966 -0.0050 -0.8680
vn 0.5385 0.0092 -0.8425
vn 0.2464 0.0004 -0.9692
vn 0.2225 0.0063 -0.9749
vn -0.0434 0.0052 -0.9990
vn 0.0762 -0.0093 -0.9970
vn 0.2233 0.0108 -0.9747
vn 0.3771 -0.0087 -0.9261
vn 0.5266 0.0064 -0.8501
vn 0.5830 -0.0047 -0.8125
vn 0.7358 0.0067 -0.6771
vn 0.8688 0.0061 -0.4952
vn 0.8154 -0.0098 -0.5788
vn 0.9816 0.0093 -0.1908
vn 0.9626 -0.0071 -0.2708
vn 0.9996 -0.0105 0.0264
vn 0.9861 0.0127 0.1654
vn 0.9317 -0.0127 0.3630
vn 0.8791 0.0082 0.4766
vn 0.7394 -0.0055 0.6733
vn 0.7551 0.0009 0.6556
vn 0.4965 0.0041 0.8680
vn 0.5267 -0.0043 0.8500
vn 0.2464 -0.0003 0.9692
vn 0.2225 -0.0052 0.9749
vn 0.0434 0.0052 0.9990
vn -0.0762 -0.0093 0.9970
vn -0.2233 0.0108 0.9747
vn -0.3771 -0.0087 0.9261
vn -0.5266 0.0064 0.8501
vn -0.5829 -0.0047 0.8125
vn -0.7358 0.0067 0.6771
vn -0.8688 0.0061 0.4952
vn -0.8154 -0.0098 0.5789
vn -0.9816 0.0093 0.1908
vn -0.9626 -0.0071 0.2708
vn -0.9996 -0.0105 -0.0264
vn -0.9861 0.0127 -0.1654
vn -0.9317 -0.0127 -0.3630
vn -0.8791 0.0082 -0.4766
vn -0.7394 -0.0055 -0.6733
vn -0.7551 0.0009 -0.6556
vn -0.4966 0.0041 -0.8680
vn -0.5267 -0.0043 -0.8500
vn -0.2464 -0.0003 -0.9692
vn -0.2225 -0.0052 -0.9749
vn -0.0000 -0.0000 -1.0000
vn 1.0000 -0.0000 -0.0000
vn -0.0000 -0.0000 1.0000
vn -0.0000 -1.0000 -0.0000
vt 0.000000 0.000000
vt 0.515750 0.000000
vt 0.515750 0.250000
vt 0.500000 0.250000
vt 0.500000 0.000000
vt 0.515750 0.500000
vt 0.500000 0.500000
vt 0.515750 0.382995
vt 0.515750 0.750000
vt 0.500000 0.750000
vt 0.500000 1.000000
vt 0.515750 1.000000
s 0
f 3/1/1 92/1/1 2/1/1
f 4/1/1 3/1/1 2/1/1
f 5/1/1 4/1/1 2/1/1
f 6/1/1 5/1/1 2/1/1
f 92/2/2 94/3/2 93/4/2 91/5/2
f 7/1/1 6/1/1 2/1/1
f 8/1/1 7/1/1 2/1/1
f 9/1/1 8/1/1 2/1/1
f 10/1/1 9/1/1 2/1/1
f 11/1/1 92/1/1 12/1/1
f 12/1/1 92/1/1 13/1/1
f 13/1/1 92/1/1 3/1/1
f 94/1/1 92/1/1 11/1/1
f 14/1/1 94/1/1 11/1/1
f 16/1/3 17/1/3 15/1/3
f 18/1/4 16/1/4 15/1/4
f 18/1/5 15/1/5 19/1/5
f 18/1/6 19/1/6 20/1/6
f 20/1/7 19/1/7 21/1/7
f 20/1/8 21/1/8 22/1/8
f 24/1/9 21/1/9 23/1/9
f 22/1/10 21/1/10 24/1/10
f 94/1/1 23/1/1 95/1/1
f 26/1/11 23/1/11 25/1/11
f 24/1/12 23/1/12 26/1/12
f 26/1/13 25/1/13 27/1/13
f 28/1/14 25/1/14 14/1/14
f 27/1/15 25/1/15 28/1/15
f 28/1/16 14/1/16 29/1/16
f 29/1/17 14/1/17 11/1/17
f 29/1/18 11/1/18 30/1/18
f 30/1/19 11/1/19 12/1/19
f 31/1/20 12/1/20 13/1/20
f 30/1/21 12/1/21 31/1/21
f 32/1/22 13/1/22 3/1/22
f 31/1/23 13/1/23 32/1/23
f 32/1/24 3/1/24 4/1/24
f 32/1/25 4/1/25 33/1/25
f 33/1/26 4/1/26 5/1/26
f 33/1/27 5/1/27 34/1/27
f 34/1/28 5/1/28 6/1/28
f 34/1/29 6/1/29 35/1/29
f 35/1/30 6/1/30 7/1/30
f 35/1/31 7/1/31 36/1/31
f 37/1/32 7/1/32 8/1/32
f 36/1/33 7/1/33 37/1/33
f 38/1/34 8/1/34 9/1/34
f 37/1/35 8/1/35 38/1/35
f 38/1/36 9/1/36 39/1/36
f 40/1/37 9/1/37 10/1/37
f 39/1/38 9/1/38 40/1/38
f 40/1/39 10/1/39 41/1/39
f 41/1/40 10/1/40 42/1/40
f 41/1/41 42/1/41 43/1/41
f 43/1/42 42/1/42 44/1/42
f 44/1/1 97/1/1 95/1/1
f 46/1/43 44/1/43 45/1/43
f 43/1/44 44/1/44 46/1/44
f 48/1/45 45/1/45 47/1/45
f 46/1/46 45/1/46 48/1/46
f 48/1/47 47/1/47 17/1/47
f 48/1/48 17/1/48 16/1/48
f 52/1/1 49/1/1 50/1/1
f 53/1/1 52/1/1 50/1/1
f 51/1/49 53/1/49 50/1/49
f 51/1/50 50/1/50 54/1/50
f 55/1/1 56/1/1 50/1/1
f 54/1/51 50/1/51 56/1/51
f 49/1/1 55/1/1 50/1/1
f 55/1/1 57/1/1 56/1/1
f 54/1/52 56/1/52 58/1/52
f 57/1/1 59/1/1 56/1/1
f 58/1/53 56/1/53 59/1/53
f 58/1/54 59/1/54 60/1/54
f 61/1/1 62/1/1 59/1/1
f 60/1/55 59/1/55 62/1/55
f 57/1/1 61/1/1 59/1/1
f 63/1/1 64/1/1 62/1/1
f 65/1/56 62/1/56 64/1/56
f 61/1/1 63/1/1 62/1/1
f 60/1/57 62/1/57 65/1/57
f 67/1/58 64/1/58 66/1/58
f 63/1/1 66/1/1 64/1/1
f 65/1/59 64/1/59 67/1/59
f 67/1/60 66/1/60 68/1/60
f 68/1/61 66/1/61 63/1/61
f 68/1/62 63/1/62 69/1/62
f 69/1/63 63/1/63 61/1/63
f 69/1/64 61/1/64 57/1/64
f 69/1/65 57/1/65 70/1/65
f 71/1/66 57/1/66 55/1/66
f 70/1/67 57/1/67 71/1/67
f 71/1/68 55/1/68 49/1/68
f 71/1/69 49/1/69 72/1/69
f 72/1/70 49/1/70 52/1/70
f 73/1/71 72/1/71 52/1/71
f 74/1/1 75/1/1 52/1/1
f 73/1/72 52/1/72 75/1/72
f 53/1/1 74/1/1 52/1/1
f 74/1/1 76/1/1 75/1/1
f 73/1/73 75/1/73 77/1/73
f 76/1/1 78/1/1 75/1/1
f 77/1/74 75/1/74 78/1/74
f 77/1/75 78/1/75 79/1/75
f 80/1/1 81/1/1 78/1/1
f 79/1/76 78/1/76 81/1/76
f 76/1/1 80/1/1 78/1/1
f 82/1/1 83/1/1 81/1/1
f 84/1/77 81/1/77 83/1/77
f 80/1/1 82/1/1 81/1/1
f 79/1/78 81/1/78 84/1/78
f 86/1/79 83/1/79 85/1/79
f 82/1/1 85/1/1 83/1/1
f 84/1/80 83/1/80 86/1/80
f 86/1/81 85/1/81 87/1/81
f 87/1/82 85/1/82 82/1/82
f 87/1/83 82/1/83 88/1/83
f 88/1/84 82/1/84 80/1/84
f 88/1/85 80/1/85 76/1/85
f 88/1/86 76/1/86 89/1/86
f 90/1/87 76/1/87 74/1/87
f 89/1/88 76/1/88 90/1/88
f 90/1/89 74/1/89 53/1/89
f 90/1/90 53/1/90 51/1/90
f 72/1/1 16/1/1 18/1/1
f 73/1/1 16/1/1 72/1/1
f 73/1/1 48/1/1 16/1/1
f 73/1/1 77/1/1 48/1/1
f 77/1/1 79/1/1 48/1/1
f 79/1/1 46/1/1 48/1/1
f 79/1/1 84/1/1 46/1/1
f 86/1/1 43/1/1 46/1/1
f 84/1/1 86/1/1 46/1/1
f 86/1/1 38/1/1 43/1/1
f 38/1/1 39/1/1 43/1/1
f 39/1/1 41/1/1 43/1/1
f 39/1/1 40/1/1 41/1/1
f 87/1/1 37/1/1 38/1/1
f 86/1/1 87/1/1 38/1/1
f 87/1/1 88/1/1 37/1/1
f 88/1/1 36/1/1 37/1/1
f 88/1/1 89/1/1 36/1/1
f 89/1/1 35/1/1 36/1/1
f 90/1/1 34/1/1 35/1/1
f 89/1/1 90/1/1 35/1/1
f 90/1/1 51/1/1 34/1/1
f 51/1/1 33/1/1 34/1/1
f 51/1/1 54/1/1 33/1/1
f 54/1/1 32/1/1 33/1/1
f 54/1/1 58/1/1 32/1/1
f 58/1/1 60/1/1 32/1/1
f 60/1/1 31/1/1 32/1/1
f 60/1/1 65/1/1 31/1/1
f 67/1/1 30/1/1 31/1/1
f 65/1/1 67/1/1 31/1/1
f 67/1/1 26/1/1 30/1/1
f 26/1/1 27/1/1 30/1/1
f 27/1/1 29/1/1 30/1/1
f 27/1/1 28/1/1 29/1/1
f 68/1/1 24/1/1 26/1/1
f 67/1/1 68/1/1 26/1/1
f 68/1/1 69/1/1 24/1/1
f 69/1/1 22/1/1 24/1/1
f 69/1/1 70/1/1 22/1/1
f 70/1/1 20/1/1 22/1/1
f 71/1/1 18/1/1 20/1/1
f 70/1/1 71/1/1 20/1/1
f 71/1/1 72/1/1 18/1/1
f 97/6/91 96/7/91 93/4/91 94/3/91 95/8/91
f 97/6/92 2/9/92 1/10/92 96/7/92
f 91/11/93 1/10/93 2/9/93 92/12/93
f 96/1/94 1/1/94 91/1/94 93/1/94
f 10/1/1 2/1/1 97/1/1
f 15/1/1 17/1/1 95/1/1
f 95/1/1 19/1/1 15/1/1
f 95/1/1 21/1/1 19/1/1
f 95/1/1 23/1/1 21/1/1
f 94/1/1 25/1/1 23/1/1
f 94/1/1 14/1/1 25/1/1
f 42/1/1 10/1/1 97/1/1
f 44/1/1 42/1/1 97/1/1
f 45/1/1 44/1/1 95/1/1
f 47/1/1 45/1/1 95/1/1
f 17/1/1 47/1/1 95/1/1
